<svg width="29" height="29" viewBox="0 0 29 29" fill="none" xmlns="http://www.w3.org/2000/svg">
<path d="M14.5 0C11.6322 0 8.82875 0.85041 6.44424 2.44369C4.05972 4.03697 2.20122 6.30156 1.10375 8.95109C0.00628286 11.6006 -0.280866 14.5161 0.27862 17.3288C0.838105 20.1415 2.2191 22.7252 4.24696 24.753C6.27482 26.7809 8.85847 28.1619 11.6712 28.7214C14.4839 29.2809 17.3994 28.9937 20.0489 27.8962C22.6984 26.7988 24.963 24.9403 26.5563 22.5558C28.1496 20.1712 29 17.3678 29 14.5C28.9988 10.6547 27.4707 6.96731 24.7517 4.24829C22.0327 1.52928 18.3453 0.00121705 14.5 0ZM14.5 4.34969C15.3603 4.34969 16.2013 4.6048 16.9166 5.08275C17.6319 5.5607 18.1894 6.24003 18.5186 7.03483C18.8478 7.82963 18.934 8.70421 18.7661 9.54797C18.5983 10.3917 18.184 11.1668 17.5757 11.7751C16.9674 12.3834 16.1923 12.7977 15.3486 12.9655C14.5048 13.1333 13.6302 13.0472 12.8354 12.718C12.0406 12.3888 11.3613 11.8312 10.8834 11.1159C10.4054 10.4006 10.1503 9.55967 10.1503 8.69939C10.1495 8.12795 10.2615 7.56197 10.4798 7.03388C10.6981 6.50578 11.0184 6.02596 11.4225 5.62189C11.8266 5.21782 12.3064 4.89746 12.8345 4.67915C13.3626 4.46084 13.9286 4.34889 14.5 4.34969ZM14.5 24.9396C12.7773 24.9393 11.0814 24.5128 9.56348 23.698C8.0456 22.8833 6.75289 21.7056 5.80062 20.27C5.84347 17.385 11.5997 15.804 14.5 15.804C17.4003 15.804 23.1565 17.385 23.1994 20.27C22.2471 21.7056 20.9544 22.8833 19.4365 23.698C17.9186 24.5128 16.2227 24.9393 14.5 24.9396Z" fill="#65ADFF"/>
</svg>
