<svg width="19" height="19" viewBox="0 0 19 19" fill="none" xmlns="http://www.w3.org/2000/svg">
<rect width="19" height="19" rx="5" fill="#EEEEEE"/>
<path d="M3 5C3 3.89543 3.89543 3 5 3H6C6.55228 3 7 3.44772 7 4V8C7 8.55228 6.55228 9 6 9H4C3.44772 9 3 8.55228 3 8V5Z" fill="#979797"/>
<path d="M3 11C3 10.4477 3.44772 10 4 10H6C6.55228 10 7 10.4477 7 11V15C7 15.5523 6.55228 16 6 16H5C3.89543 16 3 15.1046 3 14V11Z" fill="#979797"/>
<rect x="8" y="3" width="3" height="6" rx="1" fill="#979797"/>
<rect x="8" y="10" width="3" height="6" rx="1" fill="#979797"/>
<path d="M12 4C12 3.44772 12.4477 3 13 3H14C15.1046 3 16 3.89543 16 5V8C16 8.55228 15.5523 9 15 9H13C12.4477 9 12 8.55228 12 8V4Z" fill="#979797"/>
<path d="M12 11C12 10.4477 12.4477 10 13 10H15C15.5523 10 16 10.4477 16 11V14C16 15.1046 15.1046 16 14 16H13C12.4477 16 12 15.5523 12 15V11Z" fill="#979797"/>
</svg>
