<svg width="19" height="19" viewBox="0 0 19 19" fill="none" xmlns="http://www.w3.org/2000/svg">
<rect x="0.5" y="0.5" width="18" height="18" rx="4.5" fill="#EEEEEE" stroke="#979797"/>
<path d="M3 4.84211C3 3.89149 3.873 3.18062 4.80391 3.37322L9.19609 4.28195C9.39657 4.32343 9.60343 4.32343 9.80391 4.28195L14.1961 3.37322C15.127 3.18062 16 3.89149 16 4.84211V13.4338C16 14.145 15.5004 14.7585 14.8039 14.9026L9.80391 15.9371C9.60343 15.9786 9.39657 15.9786 9.19609 15.9371L4.19609 14.9026C3.49955 14.7585 3 14.145 3 13.4337V4.84211Z" fill="#979797"/>
<rect width="5.02114" height="1" rx="0.3" transform="matrix(0.977002 0.213231 -0.175168 0.984539 4.23047 5)" fill="#EEEEEE"/>
<rect width="5.02114" height="1" rx="0.3" transform="matrix(-0.977002 0.213231 0.175168 0.984539 14.9062 5)" fill="#EEEEEE"/>
<rect width="5.02114" height="1" rx="0.3" transform="matrix(0.977002 0.213231 -0.175168 0.984539 4.23047 7.36719)" fill="#EEEEEE"/>
<rect width="5.02114" height="1" rx="0.3" transform="matrix(-0.977002 0.213231 0.175168 0.984539 14.9062 7.36719)" fill="#EEEEEE"/>
<rect width="5.02114" height="1" rx="0.3" transform="matrix(0.977002 0.213231 -0.175168 0.984539 4.23047 9.73438)" fill="#EEEEEE"/>
<rect width="5.02114" height="1" rx="0.3" transform="matrix(-0.977002 0.213231 0.175168 0.984539 14.9062 9.73438)" fill="#EEEEEE"/>
<rect width="5.02114" height="1" rx="0.3" transform="matrix(0.977002 0.213231 -0.175168 0.984539 4.23047 12.1016)" fill="#EEEEEE"/>
<rect width="5.02114" height="1" rx="0.3" transform="matrix(-0.977002 0.213231 0.175168 0.984539 14.9062 12.1016)" fill="#EEEEEE"/>
</svg>
