<svg width="19" height="19" viewBox="0 0 19 19" fill="none" xmlns="http://www.w3.org/2000/svg">
<rect width="19" height="19" rx="5" fill="#EEEEEE"/>
<rect x="3" y="3" width="13" height="13" rx="2" fill="#979797"/>
<path d="M12.3418 12.5215C11.6126 12.9186 10.8005 13.1172 9.90527 13.1172C8.87012 13.1172 8.0319 12.7949 7.39062 12.1504C6.74935 11.5059 6.42871 10.653 6.42871 9.5918C6.42871 8.50781 6.77865 7.61914 7.47852 6.92578C8.18164 6.22917 9.07357 5.88086 10.1543 5.88086C10.9323 5.88086 11.5866 5.99479 12.1172 6.22266V7.41895C11.5801 7.06087 10.9404 6.88184 10.1982 6.88184C9.4528 6.88184 8.84082 7.1276 8.3623 7.61914C7.88704 8.11068 7.64941 8.74707 7.64941 9.52832C7.64941 10.3324 7.85449 10.9655 8.26465 11.4277C8.6748 11.8867 9.23145 12.1162 9.93457 12.1162C10.4163 12.1162 10.833 12.0234 11.1846 11.8379V10.1729H9.70996V9.19629H12.3418V12.5215Z" fill="white"/>
</svg>
