<svg width="20" height="20" viewBox="0 0 20 20" fill="none" xmlns="http://www.w3.org/2000/svg">
<path d="M17.4328 10.98C17.4728 10.66 17.5028 10.34 17.5028 10C17.5028 9.66 17.4728 9.34 17.4328 9.02L19.5428 7.37C19.7328 7.22 19.7828 6.95 19.6628 6.73L17.6628 3.27C17.5728 3.11 17.4028 3.02 17.2228 3.02C17.1628 3.02 17.1028 3.03 17.0528 3.05L14.5628 4.05C14.0428 3.65 13.4828 3.32 12.8728 3.07L12.4928 0.42C12.4628 0.18 12.2528 0 12.0028 0H8.00277C7.75277 0 7.54277 0.18 7.51277 0.42L7.13277 3.07C6.52277 3.32 5.96277 3.66 5.44277 4.05L2.95277 3.05C2.89277 3.03 2.83277 3.02 2.77277 3.02C2.60277 3.02 2.43277 3.11 2.34277 3.27L0.342769 6.73C0.212769 6.95 0.272769 7.22 0.462769 7.37L2.57277 9.02C2.53277 9.34 2.50277 9.67 2.50277 10C2.50277 10.33 2.53277 10.66 2.57277 10.98L0.462769 12.63C0.272769 12.78 0.222769 13.05 0.342769 13.27L2.34277 16.73C2.43277 16.89 2.60277 16.98 2.78277 16.98C2.84277 16.98 2.90277 16.97 2.95277 16.95L5.44277 15.95C5.96277 16.35 6.52277 16.68 7.13277 16.93L7.51277 19.58C7.54277 19.82 7.75277 20 8.00277 20H12.0028C12.2528 20 12.4628 19.82 12.4928 19.58L12.8728 16.93C13.4828 16.68 14.0428 16.34 14.5628 15.95L17.0528 16.95C17.1128 16.97 17.1728 16.98 17.2328 16.98C17.4028 16.98 17.5728 16.89 17.6628 16.73L19.6628 13.27C19.7828 13.05 19.7328 12.78 19.5428 12.63L17.4328 10.98ZM15.4528 9.27C15.4928 9.58 15.5028 9.79 15.5028 10C15.5028 10.21 15.4828 10.43 15.4528 10.73L15.3128 11.86L16.2028 12.56L17.2828 13.4L16.5828 14.61L15.3128 14.1L14.2728 13.68L13.3728 14.36C12.9428 14.68 12.5328 14.92 12.1228 15.09L11.0628 15.52L10.9028 16.65L10.7028 18H9.30277L8.95277 15.52L7.89277 15.09C7.46277 14.91 7.06277 14.68 6.66277 14.38L5.75277 13.68L4.69277 14.11L3.42277 14.62L2.72277 13.41L3.80277 12.57L4.69277 11.87L4.55277 10.74C4.52277 10.43 4.50277 10.2 4.50277 10C4.50277 9.8 4.52277 9.57 4.55277 9.27L4.69277 8.14L3.80277 7.44L2.72277 6.6L3.42277 5.39L4.69277 5.9L5.73277 6.32L6.63277 5.64C7.06277 5.32 7.47277 5.08 7.88277 4.91L8.94277 4.48L9.10277 3.35L9.30277 2H10.6928L11.0428 4.48L12.1028 4.91C12.5328 5.09 12.9328 5.32 13.3328 5.62L14.2428 6.32L15.3028 5.89L16.5728 5.38L17.2728 6.59L16.2028 7.44L15.3128 8.14L15.4528 9.27ZM10.0028 6C7.79277 6 6.00277 7.79 6.00277 10C6.00277 12.21 7.79277 14 10.0028 14C12.2128 14 14.0028 12.21 14.0028 10C14.0028 7.79 12.2128 6 10.0028 6ZM10.0028 12C8.90277 12 8.00277 11.1 8.00277 10C8.00277 8.9 8.90277 8 10.0028 8C11.1028 8 12.0028 8.9 12.0028 10C12.0028 11.1 11.1028 12 10.0028 12Z" fill="#4DA0FF"/>
</svg>
