<svg width="20" height="21" viewBox="0 0 20 21" fill="none" xmlns="http://www.w3.org/2000/svg">
<path d="M9.99989 0.5C8.0221 0.5 6.08872 1.08648 4.44425 2.18528C2.79978 3.28409 1.51807 4.84586 0.7612 6.6731C0.00433276 8.50034 -0.193698 10.511 0.19215 12.4508C0.577997 14.3906 1.53039 16.1724 2.9289 17.5709C4.32741 18.9694 6.10922 19.9218 8.04901 20.3076C9.9888 20.6935 11.9994 20.4954 13.8267 19.7386C15.6539 18.9817 17.2157 17.7 18.3145 16.0555C19.4133 14.4111 19.9998 12.4777 19.9998 10.4999C19.9989 7.84803 18.945 5.30504 17.0699 3.4299C15.1947 1.55475 12.6517 0.500904 9.99989 0.5ZM15.0002 11.4999H10.9999V15.5002H8.99983V11.4999H5.00029V9.49983H9.00052V5.50028H11.0006V9.50051H15.0009L15.0002 11.4999Z" fill="#1A84F6"/>
</svg>
